# xmcd
#
# Track frame offsets: 
#        150
#        15613
#        33834
#        51877
#        66417
#        79231
#        104345
#        118857
#        139358
#        155472
#        173196
#        187676
#
# Disc length: 2708 seconds
#
# Revision: 0
# Processed by: cddbd v1.5.2PL0 Copyright (c) Steve Scherf et al.
# Submitted via: ExactAudioCopyFreeDBPlugin 1.0
#
DISCID=9f0a920c
DTITLE=www.twang - Had It with You
DYEAR=2011
DGENRE=Country
TTITLE0=Pardon Me
TTITLE1=Guardian Angel
TTITLE2=Dear Patsy
TTITLE3=Caught
TTITLE4=Y'all Keep Texas
TTITLE5=I Take It on Home
TTITLE6=Had It with You
TTITLE7=Diesel Smoke
TTITLE8=Make Me a Woman
TTITLE9=I'll Go Down Swinging
TTITLE10=Hands on the Wheel
TTITLE11=Sleepwalk
EXTD=
EXTT0=
EXTT1=
EXTT2=
EXTT3=
EXTT4=
EXTT5=
EXTT6=
EXTT7=
EXTT8=
EXTT9=
EXTT10=
EXTT11=
PLAYORDER=
